# xmcd CD database file
#
# Track frame offsets:
#	150
#	19143
#	43128
#	69284
#	93095
#	108403
#	127431
#	148695
#	167776
#	183207
#	210897
#	232692
#	249949
#	265498
#
# Disc length: 3808 seconds
#
# Revision: 0
# Processed by: cddbd v1.5.1PL0 Copyright (c) Steve Scherf et al.
# Submitted via: CDex 1.51
#
DISCID=bb0ede0e
DTITLE=thee michelle gun elephant - Disk1 GRATEFUL TRIAD YEARS 1995-1997
DYEAR=1900
DGENRE=Rock
TTITLE0=マシュマロ・モンスター
TTITLE1=strawberry garden
TTITLE2=世界の終わり(Primitive Version)
TTITLE3=I was walkin' and sleepin'
TTITLE4=キャンディ・ハウス
TTITLE5=リリィ
TTITLE6=シャンデリヤ
TTITLE7=スロー
TTITLE8=カルチャー
TTITLE9=カーテン
TTITLE10=ゲット・アップ・ルーシー
TTITLE11=バードメン
TTITLE12=ブロンズ・マスター
TTITLE13=サニー・サイド・リバー
EXTD=
EXTT0=
EXTT1=
EXTT2=
EXTT3=
EXTT4=
EXTT5=
EXTT6=
EXTT7=
EXTT8=
EXTT9=
EXTT10=
EXTT11=
EXTT12=
EXTT13=
PLAYORDER=
